M48
;Layer_Color=9474304
;FILE_FORMAT=4:4
METRIC,LZ
;TYPE=PLATED
T1F00S00C0.3000
T2F00S00C1.0200
T3F00S00C2.0000
;TYPE=NON_PLATED
T4F00S00C1.7000
%
T01
X00313Y00179
X00473Y00425
X00423Y00419
X0037Y00424
X00324999Y00396999
X00307Y004045
X00274Y00421
X00236Y00396
X00221Y00364
X00154Y00363
X00275Y00343
X0037Y00351
X004
X00204Y00487
T02
X002933Y00065
X003187
X003197Y00224
X002943
X00578Y002696
Y00295
X005847Y00483
X005593
X004987Y00553
X004733
X003867Y00596
X003613
X002447Y00578
X002193
X000814Y00521
X00056
T03
X00034Y00125
X0025
X00363Y00127
X00579
T04
X00076Y00616
X00146
M30
